<?xml version="1.0" encoding="UTF-8" standalone="no"?>
<!-- Created with Inkscape (http://www.inkscape.org/) -->

<svg
   width="51.726044mm"
   height="12.14603mm"
   viewBox="0 0 51.726044 12.14603"
   version="1.1"
   id="svg5"
   inkscape:version="1.1.2 (0a00cf5339, 2022-02-04)"
   sodipodi:docname="impatex-logo.svg"
   xmlns:inkscape="http://www.inkscape.org/namespaces/inkscape"
   xmlns:sodipodi="http://sodipodi.sourceforge.net/DTD/sodipodi-0.dtd"
   xmlns="http://www.w3.org/2000/svg"
   xmlns:svg="http://www.w3.org/2000/svg">
  <sodipodi:namedview
     id="namedview7"
     pagecolor="#ffffff"
     bordercolor="#666666"
     borderopacity="1.0"
     inkscape:pageshadow="2"
     inkscape:pageopacity="0.0"
     inkscape:pagecheckerboard="0"
     inkscape:document-units="mm"
     showgrid="false"
     inkscape:zoom="0.53165938"
     inkscape:cx="348.9076"
     inkscape:cy="-51.724847"
     inkscape:window-width="1850"
     inkscape:window-height="1016"
     inkscape:window-x="70"
     inkscape:window-y="27"
     inkscape:window-maximized="1"
     inkscape:current-layer="layer1"
     fit-margin-top="0"
     fit-margin-left="0"
     fit-margin-right="0"
     fit-margin-bottom="0" />
  <defs
     id="defs2" />
  <g
     inkscape:label="Camada 1"
     inkscape:groupmode="layer"
     id="layer1"
     transform="translate(-25.680902,-123.78845)">
    <path
       style="fill:#000000;stroke-width:0.264583"
       d="m 29.751536,135.58765 c -0.526048,-0.19074 -1.32926,-0.61227 -1.784917,-0.93672 l -0.828467,-0.58992 -0.728625,-1.23949 -0.728625,-1.23948 0.007,-1.85208 0.007,-1.85209 0.431471,-0.79924 c 0.629805,-1.16664 1.787674,-2.25124 2.994148,-2.80469 l 1.058333,-0.48549 h 12.832292 12.832292 l 1.0731,0.48742 1.073097,0.48742 0.966163,1.12874 0.966161,1.12874 0.323765,1.44674 0.323765,1.44674 -0.325736,1.23077 c -0.179158,0.67692 -0.614776,1.67068 -0.968039,2.20833 l -0.642303,0.97757 -1.262695,0.74222 -1.262695,0.74224 -12.7,0.0595 -12.7,0.0596 z m 2.411658,-1.85171 c 0,-0.54031 -2.342967,-7.11624 -2.642031,-7.4153 -0.590272,-0.59028 -0.437483,0.15361 0.701231,3.41407 0.659786,1.88916 1.261203,3.64319 1.336481,3.89785 0.161462,0.54622 0.604319,0.62197 0.604319,0.10338 z m 3.96875,0.1578 c 0,-0.11101 -0.26789,-0.31937 -0.595312,-0.46302 l -0.595313,-0.26118 -0.08313,-1.3178 -0.08313,-1.3178 -0.296727,-0.18339 -0.296726,-0.18339 0.322864,-0.38902 c 0.177575,-0.21397 0.394863,-0.99695 0.482861,-1.73996 l 0.159998,-1.35093 h 0.492313 0.492312 v -0.26458 -0.26459 h -0.608541 c -0.334698,0 -0.751417,0.14288 -0.926042,0.3175 l -0.3175,0.3175 v 1.27568 1.27567 l -0.661458,0.30138 c -0.363803,0.16576 -0.661459,0.38222 -0.661459,0.48102 0,0.0988 0.297656,0.31527 0.661459,0.48103 l 0.661458,0.30138 v 1.27567 1.27567 l 0.3175,0.3175 c 0.348718,0.34872 1.534583,0.4381 1.534583,0.11566 z m 19.265263,-0.1356 c 0.154033,-0.1856 0.317439,-0.92974 0.363128,-1.65365 l 0.08307,-1.3162 0.595313,-0.26118 c 0.763076,-0.33478 0.749966,-0.50946 -0.06615,-0.8813 l -0.661459,-0.30138 v -1.27567 -1.27568 l -0.3175,-0.3175 c -0.174625,-0.17462 -0.591343,-0.3175 -0.926041,-0.3175 h -0.608542 v 0.26459 0.26458 h 0.529167 0.529166 v 1.23594 1.23593 l 0.427379,0.47225 0.427379,0.47225 -0.427379,0.42738 -0.427379,0.42738 v 1.1965 1.19649 l -0.529166,0.13838 c -0.291042,0.0761 -0.529167,0.24356 -0.529167,0.37211 0,0.35938 1.222238,0.27696 1.538179,-0.10372 z m -8.152762,-0.32401 c 0,-0.21829 -0.119063,-0.39688 -0.264584,-0.39688 h -0.264583 v -0.53421 -0.5342 l 0.663386,0.16649 0.663386,0.1665 0.65953,-0.43214 0.659531,-0.43214 v -1.14352 -1.14352 l -0.463021,-0.41149 -0.46302,-0.4115 -1.392316,0.004 -1.392315,0.004 -0.175884,0.28458 -0.175883,0.28459 0.311428,0.10381 0.311428,0.10381 v 1.96232 1.96233 h -0.264583 c -0.145521,0 -0.264584,0.17859 -0.264584,0.39688 v 0.39687 h 0.926042 0.926042 z m -0.25024,-2.09939 -0.315032,-0.37959 0.0842,-0.87718 0.0842,-0.87718 h 0.79375 0.79375 l 0.08697,0.91436 0.08697,0.91437 -0.468271,0.34241 c -0.595296,0.43529 -0.758819,0.42998 -1.146537,-0.0372 z m -8.481011,0.51189 c 0,-0.21829 -0.119062,-0.39688 -0.264583,-0.39688 h -0.264583 v -1.5875 -1.5875 h -0.513552 c -0.282454,0 -0.60119,0.1418 -0.708303,0.31511 l -0.194752,0.31512 0.311429,0.10381 0.311428,0.10381 v 1.16857 1.16858 h -0.264584 c -0.145521,0 -0.264583,0.17859 -0.264583,0.39688 v 0.39687 h 0.926042 0.926041 z m 4.497917,-0.0209 c 0,-0.20678 -0.125908,-0.37597 -0.279796,-0.37597 h -0.279797 l 0.08136,-1.12448 0.08136,-1.12448 0.595313,-0.0846 0.595312,-0.0845 v 1.20902 1.20903 H 43.54028 c -0.145521,0 -0.264584,0.17859 -0.264584,0.39688 v 0.39687 h 0.926042 0.926042 v -0.39687 c 0,-0.21829 -0.119063,-0.39688 -0.264584,-0.39688 h -0.264583 v -1.14006 -1.14005 l -0.375496,-0.51352 -0.375495,-0.51352 -0.860997,0.32499 -0.860997,0.32499 -0.284861,-0.23327 -0.284862,-0.23327 -1.301163,0.0405 -1.301162,0.0405 -0.109949,0.33073 -0.109949,0.33073 h 0.286632 0.286632 v 1.17501 1.17501 l -0.264583,0.16352 c -0.145521,0.0899 -0.264583,0.26616 -0.264583,0.3916 v 0.22808 h 2.116666 2.116667 v -0.37598 z m -2.579687,-0.28663 -0.33073,-0.13345 0.0041,-0.83785 c 0.0022,-0.46081 0.105792,-0.99839 0.230142,-1.19461 l 0.22609,-0.35676 0.497463,0.0944 0.497462,0.0944 0.08445,1.0292 0.08446,1.0292 -0.349039,0.22132 c -0.385101,0.24418 -0.462496,0.24862 -0.944351,0.0542 z m 13.071567,0.35488 c 0.09196,-0.092 -0.02844,-0.24227 -0.267551,-0.33402 l -0.434745,-0.16682 v -1.07533 -1.07534 l -0.437883,-0.48386 c -0.643006,-0.71051 -2.207951,-0.57636 -2.207951,0.18928 v 0.35193 l 0.926042,-0.15027 0.926042,-0.15028 v 0.4315 0.43149 h -0.546561 c -0.300608,0 -0.776858,0.12325 -1.058333,0.27389 l -0.511773,0.2739 v 0.59923 c 0,0.32957 0.130412,0.72964 0.289803,0.88903 l 0.289804,0.28981 1.432959,-0.0635 c 0.788125,-0.0349 1.508194,-0.13871 1.600147,-0.23066 z m -2.718421,-0.56384 c -0.205159,-0.53464 0.09996,-0.93871 0.708824,-0.93871 h 0.513551 v 0.50086 0.50085 l -0.418516,0.1606 c -0.584805,0.22442 -0.637571,0.20974 -0.803859,-0.2236 z m -12.918586,-4.13677 0.177769,-0.28763 -0.230512,-0.23052 -0.230512,-0.23051 -0.362415,0.22399 -0.362414,0.22398 0.181804,0.29417 c 0.231125,0.37396 0.5974,0.37686 0.82628,0.007 z m 28.957628,6.50535 v -0.39688 h 0.396875 0.396875 v -2.38125 -2.38125 h -0.408864 -0.408865 l 0.173728,-0.92604 0.173725,-0.92604 h -0.823195 -0.823196 v 2.38125 2.38125 h 0.529167 0.529166 v 0.26458 0.26459 h -1.5875 -1.5875 v -0.26459 -0.26458 h 0.529167 0.529167 v -2.38125 -2.38125 h -0.79375 -0.79375 v 0.79375 0.79375 h -0.396875 -0.396875 v -1.19063 -1.19062 h 2.910416 2.910417 v 0.92604 0.92604 h 1.951302 1.951302 l 0.165365,0.82683 c 0.09095,0.45475 0.165365,1.05006 0.165365,1.32291 v 0.4961 h -0.396875 -0.396876 v -0.50753 c 0,-0.27914 -0.07227,-0.69586 -0.160599,-0.92604 l -0.160599,-0.41852 h -1.294609 -1.294609 v 0.92604 0.92605 h 0.79375 0.79375 v -0.55122 -0.55121 l 0.330729,0.10899 0.330729,0.10899 0.07997,1.36826 0.07997,1.36827 h -0.379844 -0.379843 l -0.13838,-0.52917 -0.13838,-0.52916 h -0.686229 -0.686228 v 1.05833 1.05833 h 1.42435 1.42435 l 0.156398,-0.59531 0.1564,-0.59531 -0.257834,-0.0882 c -0.141806,-0.0485 -0.257831,-0.25686 -0.257831,-0.46302 v -0.37482 l 0.463021,-0.006 0.463021,-0.006 0.727604,-1.02882 c 0.894514,-1.26482 0.895654,-1.36312 0.03099,-2.66973 l -0.696616,-1.05268 h -0.494008 -0.494006 v -0.39688 -0.39687 h 1.221484 1.221483 l -0.131866,0.50425 -0.131863,0.50425 0.473086,0.72118 0.473088,0.72118 0.374946,-0.76241 c 0.206222,-0.41933 0.327713,-0.97077 0.269979,-1.22543 l -0.104971,-0.46302 h 1.077735 1.077733 v 0.39687 0.39688 h -0.373986 -0.373986 l -0.797476,1.08439 -0.797472,1.0844 0.910137,1.26685 0.910141,1.26685 0.525904,0.13752 c 0.289248,0.0756 0.525904,0.26774 0.525904,0.42688 v 0.28936 h -1.221483 -1.221483 l 0.130616,-0.49948 0.130615,-0.49948 -0.590471,-0.74052 -0.590473,-0.74053 -0.499595,0.76248 -0.499594,0.76248 0.07519,0.44381 0.07519,0.44381 -0.540086,0.14123 -0.540086,0.14124 v 0.95081 0.95081 h -2.64584 -2.645833 z"
       id="path132" />
  </g>
</svg>
